<svg xmlns="http://www.w3.org/2000/svg" viewBox="32 52 418 410" role="img" aria-label="Medhmar camel emblem with gold crescent">
  <path fill="#B08D67" d="M220 68 L219 69 L211 69 L187 74 L172 80 L169 80 L148 90 L146 92 L144 92 L129 102 L109 118 L91 138 L72 167 L65 184 L63 186 L56 208 L52 228 L51 247 L50 248 L51 250 L51 257 L50 258 L51 260 L51 276 L52 277 L54 295 L59 314 L62 320 L64 328 L72 345 L91 374 L120 403 L133 413 L148 422 L160 427 L164 430 L177 434 L180 436 L191 438 L195 440 L211 442 L212 443 L219 443 L220 444 L253 444 L254 443 L261 443 L262 442 L278 440 L309 430 L334 417 L337 414 L346 409 L360 397 L347 403 L323 410 L303 412 L302 413 L272 412 L252 408 L227 399 L209 389 L188 373 L175 360 L162 343 L151 324 L141 297 L137 276 L136 246 L137 245 L137 234 L142 212 L154 182 L164 166 L175 152 L190 137 L204 126 L231 111 L236 110 L247 105 L265 101 L280 100 L281 99 L302 99 L303 100 L312 100 L319 102 L322 101 L324 103 L332 104 L350 111 L351 110 L353 112 L359 114 L357 114 L356 113 L357 112 L343 101 L322 88 L301 79 L295 78 L290 75 L262 69 Z"/>
  <circle cx="294" cy="256" r="151" fill="#FFFEFC"/>
  <path fill="#483F3A" d="M273 115 L248 121 L219 135 L202 148 L188 162 L180 172 L168 192 L162 206 L157 223 L155 239 L154 240 L154 271 L155 272 L155 278 L162 305 L172 327 L179 338 L192 354 L210 370 L223 379 L227 380 L233 384 L247 390 L250 388 L251 389 L250 391 L265 395 L276 396 L277 397 L310 397 L311 396 L317 396 L340 390 L364 379 L380 368 L382 365 L385 364 L391 358 L391 356 L392 355 L393 356 L399 350 L412 333 L416 326 L415 325 L417 324 L427 301 L426 300 L428 298 L432 282 L433 267 L434 266 L434 244 L433 243 L432 229 L426 207 L414 182 L398 160 L389 151 L387 151 L381 144 L365 133 L347 124 L329 118 L315 115 L307 115 L306 114 Z"/>
  <path fill="#FFFEFC" d="M410 194 L412 199 L412 205 L410 208 L407 208 L408 209 L406 212 L404 212 L402 209 L402 207 L400 207 L397 209 L397 210 L379 227 L376 232 L355 252 L319 269 L319 281 L318 282 L318 300 L320 306 L319 321 L320 322 L321 331 L324 336 L331 338 L334 342 L331 346 L329 347 L317 347 L314 344 L313 339 L299 340 L296 337 L295 302 L297 297 L297 287 L299 280 L295 277 L274 277 L273 276 L267 276 L266 275 L259 274 L249 269 L243 264 L242 264 L241 273 L236 280 L234 281 L234 283 L232 284 L225 298 L225 309 L226 310 L225 311 L230 321 L230 323 L235 330 L234 331 L235 334 L240 338 L241 340 L237 343 L230 343 L224 339 L225 337 L225 329 L223 327 L224 326 L210 301 L210 296 L212 293 L212 290 L217 278 L212 284 L212 286 L210 289 L206 302 L206 309 L205 310 L206 325 L209 332 L209 336 L211 338 L213 337 L216 340 L213 343 L200 343 L199 342 L200 330 L199 329 L196 311 L194 307 L192 298 L195 293 L195 291 L200 280 L199 261 L201 255 L201 250 L199 263 L198 265 L192 270 L189 266 L190 260 L191 259 L192 252 L199 237 L216 221 L217 219 L225 213 L227 210 L229 210 L231 207 L237 205 L246 199 L247 200 L255 197 L268 196 L280 200 L284 203 L297 217 L305 222 L318 226 L322 229 L325 229 L326 230 L337 230 L343 228 L351 223 L354 219 L361 213 L362 210 L364 209 L373 195 L372 194 L373 191 L375 189 L377 190 L382 187 L399 187 L405 189 Z"/>
</svg>